<?xml version="1.0" encoding="utf-8"?>
<svg viewBox="0 -43.92 122.88 122.88" fill="#000000" style="enable-background:new 0 0 122.88 35.03" xmlns="http://www.w3.org/2000/svg">
  <defs>
    <style type="text/css">.st0{fill-rule:evenodd;clip-rule:evenodd;}</style>
  </defs>
  <g transform="matrix(0.9999999999999999, 0, 0, 0.9999999999999999, 0, 0)">
    <title>Car</title>
    <path class="st0" d="M 79.05 5 C 78.46 6.27 77.99 7.69 77.63 9.23 C 76.81 11.8 78.02 12.34 80.82 11.29 C 82.88 10.06 84.94 8.82 87 7.59 C 88.05 6.85 88.55 6.12 88.38 5.4 C 88.04 3.98 85.3 3.24 83.05 2.8 C 80.19 2.23 80.39 2.11 79.05 5 Z M 46.14 12.5 C 48.91 9.53 52.11 7.6 55.81 5.74 C 63.91 1.66 68.87 2.16 77.47 2.16 L 74.58 9.66 C 73.37 11.26 72 12.39 69.92 12.5 L 46.14 12.5 Z M 40.82 10.3 C 44.34 8.11 48.17 6.15 52.41 4.48 C 65.32 -0.61 75.19 -1.52 88.73 2.58 C 92.81 4.13 96.89 5.68 100.97 6.64 C 105 7.6 122.45 8.52 122.88 11.45 L 118.57 16.6 C 120.14 17.96 121.42 19.63 121.89 22.24 C 121.76 23.85 121.32 25.2 120.56 26.28 C 119.27 28.13 115.49 30.04 113.45 28.95 C 112.8 28.6 112.43 27.9 112.44 26.71 C 112.5 2.81 83.65 5.53 85.82 29.53 L 35.48 29.53 C 44.8 5.49 5.04 5.4 12.1 28.7 C 9.62 31.38 3.77 27.34 0 18.75 C 1.03 17.73 2.16 16.76 3.42 15.86 C 3.36 15.81 3.48 16.05 3.27 15.69 C 3.06 15.33 3.78 13.82 5.26 12.95 C 13.02 8.4 31.73 8.52 40.82 10.3 Z"/>
  </g>
  <g transform="matrix(0.049975000321865075, 0, 0, 0.049975000321865075, 10.987688064575195, 43.43500518798827)" style="">
    <title>Tires</title>
    <g class="Tire" style="" transform="matrix(0.871171, 0, 0, 0.871171, 38.187836, -614.474976)">
      <title>Tire</title>
      <path class="st0" d="M256.004,0C114.613,0,0.001,114.613,0.001,256.004C0.001,397.387,114.613,512,256.004,512 c141.383,0,255.996-114.613,255.996-255.996C511.999,114.613,397.387,0,256.004,0z M256.004,419.18 c-90.128,0-163.185-73.048-163.185-163.176S165.876,92.82,256.004,92.82c90.12,0,163.176,73.057,163.176,163.185 S346.124,419.18,256.004,419.18z" style="clip-rule: nonzero; fill-rule: nonzero;"/>
      <path class="st0" d="M150.727,196.65c1.108,2.954,3.495,5.239,6.5,6.212l56.239,18.289c5.239,1.684,10.977,0.787,15.429-2.446 c4.444-3.25,7.092-8.421,7.092-13.923v-59.1c0-3.148-1.446-6.136-3.927-8.082c-2.471-1.972-5.704-2.683-8.768-1.972 c0,0,0.838-0.634-4.85,1.152c-26.541,8.37-49.283,25.34-64.898,47.666c-3.216,4.587-1.98,3.275-1.98,3.275 C149.948,190.404,149.644,193.688,150.727,196.65z" style="clip-rule: nonzero; fill-rule: nonzero;"/>
      <path class="st0" d="M212.147,270.265c-1.701-5.248-5.807-9.361-11.045-11.045l-56.215-18.264 c-2.996-0.973-6.271-0.516-8.895,1.218c-2.624,1.752-4.308,4.604-4.579,7.752c0,0-0.338-0.998-0.398,4.96 c-0.254,27.828,8.87,54.683,25.273,76.451c3.368,4.469,2.488,2.886,2.488,2.886c2.073,2.378,5.103,3.682,8.235,3.554 c3.156-0.127,6.076-1.684,7.921-4.24l34.768-47.861C212.933,281.234,213.839,275.487,212.147,270.265z" style="clip-rule: nonzero; fill-rule: nonzero;"/>
      <path class="st0" d="M269.927,309.206c-3.25-4.443-8.422-7.084-13.923-7.084c-5.509,0-10.681,2.641-13.906,7.084l-34.75,47.81 c-1.845,2.547-2.438,5.814-1.575,8.861c0.838,3.038,3.03,5.51,5.95,6.738c0,0-1.066,0.025,4.596,1.921 c26.389,8.844,54.75,8.454,80.505-0.424c5.289-1.819,3.52-1.473,3.52-1.473c2.912-1.218,5.095-3.706,5.933-6.736 c0.846-3.047,0.245-6.297-1.6-8.845L269.927,309.206z" style="clip-rule: nonzero; fill-rule: nonzero;"/>
      <path class="st0" d="M367.155,240.939l-56.248,18.281c-5.23,1.684-9.352,5.797-11.037,11.045 c-1.709,5.222-0.804,10.968,2.446,15.403l34.726,47.819c1.862,2.564,4.782,4.096,7.938,4.249c3.149,0.135,6.178-1.194,8.235-3.58 c0,0-0.304,1.007,3.241-3.775c16.564-22.368,24.984-49.478,24.502-76.705c-0.094-5.586-0.33-3.792-0.33-3.792 c-0.271-3.148-1.946-6-4.578-7.735C373.426,240.423,370.16,239.957,367.155,240.939z" style="clip-rule: nonzero; fill-rule: nonzero;"/>
      <path class="st0" d="M283.112,218.706c4.461,3.225,10.182,4.13,15.421,2.446l56.198-18.289c3.005-0.966,5.392-3.259,6.5-6.212 c1.101-2.962,0.779-6.255-0.863-8.954c0,0,0.872,0.592-2.59-4.249c-16.148-22.674-39.321-39.042-65.372-47.006 c-5.358-1.625-3.724-0.863-3.724-0.863c-3.072-0.711-6.296,0.016-8.751,1.98c-2.48,1.938-3.919,4.926-3.919,8.066v59.152 C276.012,210.284,278.661,215.456,283.112,218.706z" style="clip-rule: nonzero; fill-rule: nonzero;"/>
    </g>
    <g class="Tire" style="" transform="matrix(0.871171, 0, 0, 0.871171, 1546.142944, -602.934204)">
      <title>Tire</title>
      <path class="st0" d="M256.004,0C114.613,0,0.001,114.613,0.001,256.004C0.001,397.387,114.613,512,256.004,512 c141.383,0,255.996-114.613,255.996-255.996C511.999,114.613,397.387,0,256.004,0z M256.004,419.18 c-90.128,0-163.185-73.048-163.185-163.176S165.876,92.82,256.004,92.82c90.12,0,163.176,73.057,163.176,163.185 S346.124,419.18,256.004,419.18z" style="clip-rule: nonzero; fill-rule: nonzero;"/>
      <path class="st0" d="M150.727,196.65c1.108,2.954,3.495,5.239,6.5,6.212l56.239,18.289c5.239,1.684,10.977,0.787,15.429-2.446 c4.444-3.25,7.092-8.421,7.092-13.923v-59.1c0-3.148-1.446-6.136-3.927-8.082c-2.471-1.972-5.704-2.683-8.768-1.972 c0,0,0.838-0.634-4.85,1.152c-26.541,8.37-49.283,25.34-64.898,47.666c-3.216,4.587-1.98,3.275-1.98,3.275 C149.948,190.404,149.644,193.688,150.727,196.65z" style="clip-rule: nonzero; fill-rule: nonzero;"/>
      <path class="st0" d="M212.147,270.265c-1.701-5.248-5.807-9.361-11.045-11.045l-56.215-18.264 c-2.996-0.973-6.271-0.516-8.895,1.218c-2.624,1.752-4.308,4.604-4.579,7.752c0,0-0.338-0.998-0.398,4.96 c-0.254,27.828,8.87,54.683,25.273,76.451c3.368,4.469,2.488,2.886,2.488,2.886c2.073,2.378,5.103,3.682,8.235,3.554 c3.156-0.127,6.076-1.684,7.921-4.24l34.768-47.861C212.933,281.234,213.839,275.487,212.147,270.265z" style="clip-rule: nonzero; fill-rule: nonzero;"/>
      <path class="st0" d="M269.927,309.206c-3.25-4.443-8.422-7.084-13.923-7.084c-5.509,0-10.681,2.641-13.906,7.084l-34.75,47.81 c-1.845,2.547-2.438,5.814-1.575,8.861c0.838,3.038,3.03,5.51,5.95,6.738c0,0-1.066,0.025,4.596,1.921 c26.389,8.844,54.75,8.454,80.505-0.424c5.289-1.819,3.52-1.473,3.52-1.473c2.912-1.218,5.095-3.706,5.933-6.736 c0.846-3.047,0.245-6.297-1.6-8.845L269.927,309.206z" style="clip-rule: nonzero; fill-rule: nonzero;"/>
      <path class="st0" d="M367.155,240.939l-56.248,18.281c-5.23,1.684-9.352,5.797-11.037,11.045 c-1.709,5.222-0.804,10.968,2.446,15.403l34.726,47.819c1.862,2.564,4.782,4.096,7.938,4.249c3.149,0.135,6.178-1.194,8.235-3.58 c0,0-0.304,1.007,3.241-3.775c16.564-22.368,24.984-49.478,24.502-76.705c-0.094-5.586-0.33-3.792-0.33-3.792 c-0.271-3.148-1.946-6-4.578-7.735C373.426,240.423,370.16,239.957,367.155,240.939z" style="clip-rule: nonzero; fill-rule: nonzero;"/>
      <path class="st0" d="M283.112,218.706c4.461,3.225,10.182,4.13,15.421,2.446l56.198-18.289c3.005-0.966,5.392-3.259,6.5-6.212 c1.101-2.962,0.779-6.255-0.863-8.954c0,0,0.872,0.592-2.59-4.249c-16.148-22.674-39.321-39.042-65.372-47.006 c-5.358-1.625-3.724-0.863-3.724-0.863c-3.072-0.711-6.296,0.016-8.751,1.98c-2.48,1.938-3.919,4.926-3.919,8.066v59.152 C276.012,210.284,278.661,215.456,283.112,218.706z" style="clip-rule: nonzero; fill-rule: nonzero;"/>
    </g>
  </g>
</svg>